<?xml version="1.0" encoding="UTF-8" standalone="no"?>
<svg
   xmlns:dc="http://purl.org/dc/elements/1.1/"
   xmlns:cc="http://creativecommons.org/ns#"
   xmlns:rdf="http://www.w3.org/1999/02/22-rdf-syntax-ns#"
   xmlns:svg="http://www.w3.org/2000/svg"
   xmlns="http://www.w3.org/2000/svg"
   viewBox="0 0 293.30667 63.093334"
   height="63.093334"
   width="293.30667"
   xml:space="preserve"
   id="svg2"
   version="1.1"><metadata
     id="metadata8"><rdf:RDF><cc:Work
         rdf:about=""><dc:format>image/svg+xml</dc:format><dc:type
           rdf:resource="http://purl.org/dc/dcmitype/StillImage" /></cc:Work></rdf:RDF></metadata><defs
     id="defs6"><clipPath
       id="clipPath20"
       clipPathUnits="userSpaceOnUse"><path
         id="path18"
         d="M 0,0 H 2199.78 V 473 H 0 Z" /></clipPath></defs><g
     transform="matrix(1.3333333,0,0,-1.3333333,0,63.093333)"
     id="g10"><g
       transform="scale(0.1)"
       id="g12"><g
         id="g14"><g
           clip-path="url(#clipPath20)"
           id="g16"><path
             id="path22"
             style="fill:#b09a4f;fill-opacity:1;fill-rule:nonzero;stroke:none"
             d="m 625.566,37.1953 c 0,-11.0898 -6.918,-18.2578 -17.621,-18.2578 -10.715,0 -17.636,7.168 -17.636,18.2578 V 97.3867 H 570.098 V 37.1953 C 570.098,14.2578 584.602,0 607.945,0 c 23.34,0 37.84,14.2578 37.84,37.1953 V 97.3867 H 625.566 V 37.1953" /><path
             id="path24"
             style="fill:#b09a4f;fill-opacity:1;fill-rule:nonzero;stroke:none"
             d="m 389.336,43.3672 h 9.352 c 7.851,0 12.539,-4.207 12.539,-11.2578 0,-7.0508 -4.688,-11.2578 -12.539,-11.2578 h -9.352 z m 8.07,17.6601 h -8.07 v 18.5743 h 8.07 c 5.449,0 11.27,-2.4453 11.27,-9.2891 0,-6.8437 -5.821,-9.2852 -11.27,-9.2852 z m 21.246,-8.4179 c 5.836,3.8164 9.586,11.5429 9.586,20.2422 0,13.9062 -12.707,24.4062 -29.55,24.4062 H 369.129 V 2.55078 h 32.105 c 18.157,0 30.832,11.62892 30.832,28.27732 0,12.5313 -7.953,18.8907 -13.414,21.7813" /><path
             id="path26"
             style="fill:#b09a4f;fill-opacity:1;fill-rule:nonzero;stroke:none"
             d="m 621.031,109.762 -13.097,13.093 -13.09,-13.093 13.09,-13.0823 13.097,13.0823" /><path
             id="path28"
             style="fill:#b09a4f;fill-opacity:1;fill-rule:nonzero;stroke:none"
             d="m 843.781,49.9023 c 0,-19.5312 -15.761,-28.4179 -30.406,-28.4179 h -5.52 v 56.8359 h 5.52 c 14.645,0 30.406,-8.8867 30.406,-28.418 z M 817.199,97.2578 H 787.648 V 2.55078 h 30.192 c 22.672,0 46.773,16.60152 46.773,47.35152 0,30.754 -24.425,47.3555 -47.414,47.3555" /><path
             id="path30"
             style="fill:#b09a4f;fill-opacity:1;fill-rule:nonzero;stroke:none"
             d="M 1832.17,97.2578 V 61.0273 h -34.65 v 36.2305 h -20.2 V 2.55078 h 20.2 V 41.4531 h 34.65 V 2.55078 h 20.19 V 97.2578 h -20.19" /><path
             id="path32"
             style="fill:#b09a4f;fill-opacity:1;fill-rule:nonzero;stroke:none"
             d="m 1625.66,29.1133 c -5.57,-6.6797 -11.71,-9.5352 -20.53,-9.5352 -16.51,0 -28.48,12.7774 -28.48,30.3828 0,17.9024 11.71,30.4024 28.48,30.4024 7.92,0 15.03,-3.3125 20.56,-9.582 l 1.29,-1.4571 10.93,16.4102 -0.83,0.8672 c -7.95,8.3476 -19.9,13.332 -31.95,13.332 -28.21,0 -48.68,-21.0195 -48.68,-49.9727 0,-29.414 20.02,-49.9609 48.68,-49.9609 13.93,0 26.35,5.46875 33.22,14.6172 l 0.7,0.9414 -12.22,14.9492 -1.17,-1.3945" /><path
             id="path34"
             style="fill:#b09a4f;fill-opacity:1;fill-rule:nonzero;stroke:none"
             d="m 1235.51,69.0313 c 0,-10.1172 -8.77,-11.1993 -12.54,-11.1993 h -6.8 v 22.3946 h 6.8 c 3.77,0 12.54,-1.086 12.54,-11.1953 z m 20.84,0 c 0,16.0859 -13.25,28.2265 -30.83,28.2265 h -29.55 V 2.55078 h 20.2 V 39.1133 l 22.55,-36.56252 h 25.33 l -27.2,40.18362 c 9.75,3.2539 19.5,12.4804 19.5,26.2969" /><path
             id="path36"
             style="fill:#b09a4f;fill-opacity:1;fill-rule:nonzero;stroke:none"
             d="m 1397.58,2.55078 h 20.1914 v 94.707 H 1397.58 Z" /><path
             id="path38"
             style="fill:#b09a4f;fill-opacity:1;fill-rule:nonzero;stroke:none"
             d="m 1023.5,40.8203 h 28.7 v 19.582 h -28.7 v 17.2735 h 32.77 l -3.01,19.582 h -49.97 V 2.55078 h 51.25 l 3,19.57812 h -34.04 v 18.6914" /><path
             id="path40"
             style="fill:#b09a4f;fill-opacity:1;fill-rule:nonzero;stroke:none"
             d="m 2199.78,405.227 -6.8,61.199 h -156.4 l -6.8,-61.199 h 51 V 221.625 h 68 v 183.602 z m -221,-61.204 c 0,71.403 -54.4,129.2 -129.2,129.2 -74.8,0 -129.2,-57.797 -129.2,-129.2 0,-71.394 54.4,-129.199 129.2,-129.199 74.8,0 129.2,57.805 129.2,129.199 m -68,0 c 0,-40.8 -27.2,-67.996 -61.2,-67.996 -34,0 -61.2,27.196 -61.2,67.996 0,40.801 27.2,68.004 61.2,68.004 34,0 61.2,-27.203 61.2,-68.004 m -248.19,-122.398 -64.61,101.996 c 23.81,10.203 44.21,27.203 44.21,64.602 0,47.601 -37.4,78.203 -85,78.203 h -95.2 V 221.625 h 68 v 91.797 h 0.68 l 53.71,-91.797 z m -88.4,166.598 c 0,-16.996 -12.59,-23.797 -30.61,-23.797 h -13.59 v 47.601 h 13.59 c 18.36,0 30.61,-6.8 30.61,-23.804 m -234.6,17.004 h 51 l -6.8,61.199 h -156.4 l -6.8,-61.199 h 51 V 221.625 h 68 z m -273.7,-6.805 c 0,20.402 30.6,30.601 65.28,-1.356 l 23.12,53.719 c -22.78,18.699 -44.54,22.438 -71.4,22.438 -44.2,0 -81.6,-27.196 -81.6,-74.801 0,-78.195 91.8,-74.801 91.8,-108.797 0,-18.703 -25.5,-20.059 -45.9,-8.16 l -21.42,12.578 -31.282,-52.016 c 27.202,-20.402 56.102,-27.203 88.402,-27.203 47.6,0 78.2,27.203 78.2,74.801 0,85 -95.2,81.602 -95.2,108.797 M 846.602,221.625 h 68 v 244.801 h -68 z M 731.68,355.922 v 0.683 c 18.359,5.778 26.519,25.5 26.519,48.622 0,34.675 -30.601,61.199 -74.801,61.199 H 584.801 V 221.625 h 108.797 c 40.8,0 78.203,25.84 78.203,74.801 0,32.98 -24.824,53.722 -40.121,59.496 m -36.719,34.004 c 0,-13.938 -9.863,-21.418 -21.418,-21.418 h -20.742 v 42.836 h 20.742 c 11.555,0 21.418,-8.16 21.418,-21.418 m 6.117,-85.684 c 0,-13.597 -7.816,-24.476 -21.418,-24.476 h -26.859 v 48.961 h 23.801 c 13.597,0 24.476,-10.879 24.476,-24.485 M 282.199,282.828 v 33.996 h 74.797 v 57.801 h -74.797 v 30.602 h 85 l -6.797,61.199 H 214.199 v -91.551 h -20.898 v -58.113 h 20.898 v -95.137 h 146.203 l 6.797,61.203 z m -142.801,-61.203 6.805,61.203 H 68 V 466.426 H 0 V 221.625 h 139.398" /></g></g></g></g></svg>